# Blender 3.3.1
# www.blender.org
mtllib gem1.mtl
o 1.92_Material.001_0
v -0.467382 0.228735 0.346437
v 0.499723 0.228735 0.346437
v 0.013567 0.668485 0.346437
v 0.012479 -0.650766 0.346437
v 0.499723 -0.211015 0.346437
v -0.467382 -0.211015 0.346437
v -0.467382 0.228735 -0.147492
v 0.013567 0.668485 -0.147492
v 0.499723 0.228735 -0.147492
v 0.012479 -0.650766 -0.147492
v -0.467382 -0.211015 -0.147492
v 0.499723 -0.211015 -0.147492
v -0.467382 -0.211015 0.346437
v 0.499723 -0.211015 0.346437
v 0.499723 0.228735 0.346437
v -0.467382 0.228735 0.346437
v 0.499723 -0.211015 0.346437
v 0.012479 -0.650766 0.346437
v 0.016712 -1.038797 0.099472
v 0.792477 -0.340359 0.099472
v -0.467382 0.228735 0.346437
v 0.013567 0.668485 0.346437
v 0.016712 1.056517 0.099473
v -0.759053 0.358079 0.099473
v 0.013567 0.668485 0.346437
v 0.499723 0.228735 0.346437
v 0.792477 0.358079 0.099473
v 0.016712 1.056517 0.099473
v 0.012479 -0.650766 0.346437
v -0.467382 -0.211015 0.346437
v -0.759053 -0.340359 0.099472
v 0.016712 -1.038797 0.099472
v 0.499723 0.228735 0.346437
v 0.499723 -0.211015 0.346437
v 0.792477 -0.340359 0.099472
v 0.792477 0.358079 0.099473
v -0.467382 -0.211015 0.346437
v -0.467382 0.228735 0.346437
v -0.759053 0.358079 0.099473
v -0.759053 -0.340359 0.099472
v -0.467382 -0.211015 -0.147492
v -0.467382 0.228735 -0.147492
v 0.499723 0.228735 -0.147492
v 0.499723 -0.211015 -0.147492
v 0.499723 -0.211015 -0.147492
v 0.792477 -0.340359 0.099472
v 0.016712 -1.038797 0.099472
v 0.012479 -0.650766 -0.147492
v -0.467382 0.228735 -0.147492
v -0.759053 0.358079 0.099473
v 0.016712 1.056517 0.099473
v 0.013567 0.668485 -0.147492
v 0.013567 0.668485 -0.147492
v 0.016712 1.056517 0.099473
v 0.792477 0.358079 0.099473
v 0.499723 0.228735 -0.147492
v 0.012479 -0.650766 -0.147492
v 0.016712 -1.038797 0.099472
v -0.759053 -0.340359 0.099472
v -0.467382 -0.211015 -0.147492
v 0.499723 0.228735 -0.147492
v 0.792477 0.358079 0.099473
v 0.792477 -0.340359 0.099472
v 0.499723 -0.211015 -0.147492
v -0.467382 -0.211015 -0.147492
v -0.759053 -0.340359 0.099472
v -0.759053 0.358079 0.099473
v -0.467382 0.228735 -0.147492
v -0.759053 -0.340359 0.099472
v -0.759053 0.358079 0.099473
v 0.016712 1.056517 0.099473
v 0.792477 0.358079 0.099473
v 0.792477 -0.340359 0.099472
v 0.016712 -1.038797 0.099472
vn -0.0000 -0.0000 1.0000
vn -0.0000 -0.0000 -1.0000
vn 0.4327 -0.4800 0.7631
vn 0.4324 -0.4802 0.7632
vn 0.4330 -0.4802 0.7628
vn 0.4328 -0.4800 0.7631
vn -0.4366 0.4812 0.7602
vn -0.4352 0.4822 0.7603
vn -0.4369 0.4823 0.7593
vn -0.4374 0.4814 0.7596
vn 0.4333 0.4805 0.7625
vn 0.4334 0.4798 0.7628
vn 0.4332 0.4803 0.7627
vn 0.4332 0.4805 0.7625
vn -0.4373 -0.4828 0.7588
vn -0.4378 -0.4804 0.7600
vn -0.4368 -0.4818 0.7596
vn -0.4369 -0.4830 0.7588
vn 0.6448 -0.0000 0.7644
vn -0.6462 -0.0000 0.7632
vn 0.4328 -0.4800 -0.7631
vn 0.4328 -0.4800 -0.7630
vn 0.4330 -0.4802 -0.7628
vn 0.4324 -0.4802 -0.7632
vn -0.4366 0.4812 -0.7602
vn -0.4374 0.4814 -0.7596
vn -0.4369 0.4823 -0.7593
vn -0.4352 0.4822 -0.7603
vn 0.4333 0.4805 -0.7625
vn 0.4332 0.4805 -0.7625
vn 0.4332 0.4803 -0.7627
vn 0.4334 0.4798 -0.7628
vn -0.4373 -0.4828 -0.7588
vn -0.4369 -0.4830 -0.7588
vn -0.4368 -0.4818 -0.7596
vn -0.4378 -0.4804 -0.7600
vn 0.6448 -0.0000 -0.7644
vn -0.6462 -0.0000 -0.7632
vt 0.593995 0.395063
vt 0.905657 0.395063
vt 0.748987 0.185190
vt 0.748636 0.814810
vt 0.905657 0.604937
vt 0.593995 0.604937
vt 0.406005 0.395063
vt 0.251013 0.185190
vt 0.094344 0.395063
vt 0.251364 0.814810
vt 0.406005 0.604937
vt 0.094344 0.604937
vt 0.593995 0.604937
vt 0.905657 0.604937
vt 0.905657 0.395063
vt 0.593995 0.395063
vt 0.905657 0.604937
vt 0.748636 0.814810
vt 0.750000 1.000000
vt 1.000000 0.666667
vt 0.593995 0.395063
vt 0.748987 0.185190
vt 0.750000 0.000000
vt 0.500000 0.333333
vt 0.748987 0.185190
vt 0.905657 0.395063
vt 1.000000 0.333333
vt 0.750000 0.000000
vt 0.748636 0.814810
vt 0.593995 0.604937
vt 0.500000 0.666667
vt 0.750000 1.000000
vt 0.905657 0.395063
vt 0.905657 0.604937
vt 1.000000 0.666667
vt 1.000000 0.333333
vt 0.593995 0.604937
vt 0.593995 0.395063
vt 0.500000 0.333333
vt 0.500000 0.666667
vt 0.406005 0.604937
vt 0.406005 0.395063
vt 0.094344 0.395063
vt 0.094344 0.604937
vt 0.094344 0.604937
vt 0.000000 0.666667
vt 0.250000 1.000000
vt 0.251364 0.814810
vt 0.406005 0.395063
vt 0.500000 0.333333
vt 0.250000 0.000000
vt 0.251013 0.185190
vt 0.251013 0.185190
vt 0.250000 0.000000
vt 0.000000 0.333333
vt 0.094344 0.395063
vt 0.251364 0.814810
vt 0.250000 1.000000
vt 0.500000 0.666667
vt 0.406005 0.604937
vt 0.094344 0.395063
vt 0.000000 0.333333
vt 0.000000 0.666667
vt 0.094344 0.604937
vt 0.406005 0.604937
vt 0.500000 0.666667
vt 0.500000 0.333333
vt 0.406005 0.395063
vt 0.500000 0.666667
vt 0.500000 0.333333
vt 0.250000 0.000000
vt 0.000000 0.333333
vt 0.000000 0.666667
vt 0.250000 1.000000
s 0
usemtl Material.004
f 1/1/1 2/2/1 3/3/1
f 4/4/1 5/5/1 6/6/1
f 7/7/2 8/8/2 9/9/2
f 10/10/2 11/11/2 12/12/2
f 13/13/1 14/14/1 15/15/1
f 13/13/1 15/15/1 16/16/1
s 1
f 17/17/3 18/18/4 19/19/5
f 17/17/3 19/19/5 20/20/6
f 21/21/7 22/22/8 23/23/9
f 21/21/7 23/23/9 24/24/10
f 25/25/11 26/26/12 27/27/13
f 25/25/11 27/27/13 28/28/14
f 29/29/15 30/30/16 31/31/17
f 29/29/15 31/31/17 32/32/18
s 0
f 33/33/19 34/34/19 35/35/19
f 33/33/19 35/35/19 36/36/19
f 37/37/20 38/38/20 39/39/20
f 37/37/20 39/39/20 40/40/20
f 41/41/2 42/42/2 43/43/2
f 41/41/2 43/43/2 44/44/2
s 1
f 45/45/21 46/46/22 47/47/23
f 45/45/21 47/47/23 48/48/24
f 49/49/25 50/50/26 51/51/27
f 49/49/25 51/51/27 52/52/28
f 53/53/29 54/54/30 55/55/31
f 53/53/29 55/55/31 56/56/32
f 57/57/33 58/58/34 59/59/35
f 57/57/33 59/59/35 60/60/36
s 0
f 61/61/37 62/62/37 63/63/37
f 61/61/37 63/63/37 64/64/37
f 65/65/38 66/66/38 67/67/38
f 65/65/38 67/67/38 68/68/38
f 71/71/2 69/69/2 70/70/2
f 69/69/2 71/71/2 74/74/2
f 74/74/2 71/71/2 72/72/2
f 74/74/2 72/72/2 73/73/2
